<?xml version="1.0" encoding="UTF-8"?>
<svg xmlns="http://www.w3.org/2000/svg" id="Ebene_1" data-name="Ebene 1" viewBox="0 0 491.99 102.68"><defs><style>.cls-1{fill:#28b5e5;}.cls-2{fill:#1b171b;}</style></defs><title>sport_reha_logo</title><polygon class="cls-1" points="93.49 19.96 93.49 8.6 155.81 8.6 155.81 19.96 93.49 19.96 93.49 19.96"/><polygon class="cls-1" points="22.07 39.4 22.07 28.03 155.81 28.03 155.81 39.4 22.07 39.4 22.07 39.4"/><polygon class="cls-1" points="0 58.83 0 47.46 155.81 47.46 155.81 58.83 0 58.83 0 58.83"/><polygon class="cls-1" points="11.05 78.26 11.05 66.89 155.81 66.89 155.81 78.26 11.05 78.26 11.05 78.26"/><polygon class="cls-1" points="54.28 97.69 54.28 86.33 155.81 86.33 155.81 97.69 54.28 97.69 54.28 97.69"/><path class="cls-2" d="M219.91,66.3a13.51,13.51,0,0,1-9.13,3.17Q198,69.47,198,66.15v-3a2.17,2.17,0,0,1,.59-1.33,1.58,1.58,0,0,1,1.77-.52,42.87,42.87,0,0,0,10.46,1,4.58,4.58,0,0,0,3.16-1.11,4,4,0,0,0,1.33-3.09,3.17,3.17,0,0,0-1.77-2.73c-.22-.07-1.32-.59-3.31-1.47-4.71-2.06-7.44-3.39-8.25-3.9a8.81,8.81,0,0,1-4-7.58,10.44,10.44,0,0,1,3.69-8.33A13.71,13.71,0,0,1,210.78,31q12.58,0,12.59,3.31v3a2.12,2.12,0,0,1-.59,1.33,1.71,1.71,0,0,1-1.77.51,42.7,42.7,0,0,0-10.23-1,4.65,4.65,0,0,0-3.24,1.11,4.22,4.22,0,0,0-1.26,3.09A3.25,3.25,0,0,0,208,45.1a32.3,32.3,0,0,0,3.31,1.47,58.36,58.36,0,0,1,8.32,3.9,8.81,8.81,0,0,1,4,7.58A10.26,10.26,0,0,1,219.91,66.3Z" transform="translate(-29.38 -15.63)"/><path class="cls-2" d="M261,64a15.27,15.27,0,0,1-11.85,5.52l-8.4.07v13.4c0,1.25-.66,1.92-2.06,1.92h-4.27a1.74,1.74,0,0,1-2-1.92V43.25a11.58,11.58,0,0,1,3.69-8.76,13,13,0,0,1,9-3.46h3.9A15,15,0,0,1,261,36.48a20.59,20.59,0,0,1,4.79,13.77A20,20,0,0,1,261,64Zm-6.11-22.61c-1.62-2.14-3.53-3.24-5.74-3.17l-3.9.08a4.14,4.14,0,0,0-3.17,1.47,4.77,4.77,0,0,0-1.4,3.53l.07,18.93h8.32a7.17,7.17,0,0,0,5.82-3.09q2.65-3.31,2.65-8.84A14.08,14.08,0,0,0,254.88,41.34Z" transform="translate(-29.38 -15.63)"/><path class="cls-2" d="M301.64,66.08a13,13,0,0,1-9.13,3.39h-5.82a12.63,12.63,0,0,1-9-3.39A11.13,11.13,0,0,1,274,57.47V43a11.2,11.2,0,0,1,3.68-8.54A13.07,13.07,0,0,1,286.76,31h5.75a12.7,12.7,0,0,1,9.05,3.39A11.13,11.13,0,0,1,305.32,43V57.47A11.34,11.34,0,0,1,301.64,66.08ZM297,43a4.74,4.74,0,0,0-1.33-3.38,4.41,4.41,0,0,0-3.16-1.48h-5.75a4.1,4.1,0,0,0-3.16,1.4A5,5,0,0,0,282.27,43l-.07,14.44a4.78,4.78,0,0,0,1.32,3.38,4.44,4.44,0,0,0,3.24,1.48h5.75a4.09,4.09,0,0,0,3.09-1.4,4.72,4.72,0,0,0,1.4-3.46Z" transform="translate(-29.38 -15.63)"/><path class="cls-2" d="M338.3,37.58a2.06,2.06,0,0,1-1.47.67c-3.83-.08-6.92-.15-9.2-.15a4.41,4.41,0,0,0-3.1,1.47A4.75,4.75,0,0,0,323.14,43V67.48a1.76,1.76,0,0,1-2,2h-4.27a1.74,1.74,0,0,1-2-1.92V43a11.55,11.55,0,0,1,3.68-8.76A12.2,12.2,0,0,1,327.7,31c1.18,0,4.27.14,9.28.37,1.32.07,2,.73,2,2v2.95A1.63,1.63,0,0,1,338.3,37.58Z" transform="translate(-29.38 -15.63)"/><path class="cls-2" d="M363.78,69.25l-3.09.22a11.48,11.48,0,0,1-9.14-3.24,11.92,11.92,0,0,1-3.75-8.91v-34c0-1,.88-1.77,2.58-2.14l3.53-.44a1.84,1.84,0,0,1,1.55.44,2.11,2.11,0,0,1,.66,1.48v8.54h7.58a1.73,1.73,0,0,1,2,1.91v3.39a1.74,1.74,0,0,1-2,1.92h-7.58V57.32a4.82,4.82,0,0,0,1.33,3.46,4.14,4.14,0,0,0,3.16,1.47h3.09a1.74,1.74,0,0,1,2,1.92v3.16A1.78,1.78,0,0,1,363.78,69.25Z" transform="translate(-29.38 -15.63)"/><path class="cls-2" d="M378.72,69.47h-7.29c-.51,0-.73-.22-.73-.74V65.12c0-.51.22-.73.73-.73h7.29c.52,0,.74.22.74.73v3.61C379.46,69.25,379.24,69.47,378.72,69.47Z" transform="translate(-29.38 -15.63)"/><path class="cls-2" d="M406.78,36.11C403,36,399.93,36,397.65,36a5.08,5.08,0,0,0-4,1.91,6.72,6.72,0,0,0-1.77,4.57V68.66c0,.51-.22.81-.74.81h-4.27c-.51,0-.73-.22-.73-.74V42.52a11.38,11.38,0,0,1,3.31-8.4A10.77,10.77,0,0,1,397.65,31c1,0,4.12.07,9.2.37.51,0,.74.36.74.88V35.3A.71.71,0,0,1,406.78,36.11Z" transform="translate(-29.38 -15.63)"/><path class="cls-2" d="M438.58,50.77a11.13,11.13,0,0,1-8.17,3.31H418.85V58a6.7,6.7,0,0,0,1.69,4.49,5.38,5.38,0,0,0,4.13,1.92,46,46,0,0,0,11.48-1.11c.52-.14.74.15.74.74v3.17a.71.71,0,0,1-.52.73c-2.57,1-6.48,1.55-11.7,1.55a11.38,11.38,0,0,1-8.18-3.24A11,11,0,0,1,413.1,58V42.59a11.06,11.06,0,0,1,3.32-8.25A11.43,11.43,0,0,1,424.67,31h5.74A11.21,11.21,0,0,1,441.9,42.59,10.89,10.89,0,0,1,438.58,50.77ZM434.46,38a5.31,5.31,0,0,0-4-1.92h-5.74A5.38,5.38,0,0,0,420.54,38a6.73,6.73,0,0,0-1.69,4.56V49h11.56a5.31,5.31,0,0,0,4-1.92,6.9,6.9,0,0,0,0-9Z" transform="translate(-29.38 -15.63)"/><path class="cls-2" d="M479.23,69.47h-4.35c-.52,0-.74-.22-.74-.74V42.59A6.73,6.73,0,0,0,472.45,38a5.33,5.33,0,0,0-4.05-1.92H456.84V68.73c0,.52-.22.74-.66.74h-4.35c-.51,0-.73-.22-.73-.74V17.11c0-.44.22-.66.73-.73l4.35-.74c.44-.07.66.15.66.74V31H468.4a11.2,11.2,0,0,1,11.49,11.56L480,68.73C480,69.25,479.74,69.47,479.23,69.47Z" transform="translate(-29.38 -15.63)"/><path class="cls-2" d="M516.19,69.47H499.62a11.38,11.38,0,0,1-8.18-3.24,11.11,11.11,0,0,1-3.38-8.32,10.88,10.88,0,0,1,3.31-8.18,11.43,11.43,0,0,1,8.25-3.31h11.49v-3.9a6.64,6.64,0,0,0-1.7-4.49,5.13,5.13,0,0,0-4.05-2,47.78,47.78,0,0,0-9.64.66c-.45.08-.67-.15-.67-.74V32.65c0-.37.22-.59.67-.73a38.2,38.2,0,0,1,9.64-.89,11.35,11.35,0,0,1,8.17,3.24,11,11,0,0,1,3.32,8.25V68.73C516.85,69.25,516.63,69.47,516.19,69.47Zm-5.08-18H499.62a5.31,5.31,0,0,0-4.12,1.92,6.87,6.87,0,0,0,0,9,5.34,5.34,0,0,0,4.12,1.92h11.49Z" transform="translate(-29.38 -15.63)"/><path class="cls-2" d="M212.87,94.77h-4.71v17c0,.47-.25.72-.78.72h-1.63c-.53,0-.78-.25-.78-.72v-17h-4.7c-.51,0-.76-.25-.76-.73V92.75a.67.67,0,0,1,.76-.75h12.6a.66.66,0,0,1,.75.75V94A.66.66,0,0,1,212.87,94.77Z" transform="translate(-29.38 -15.63)"/><path class="cls-2" d="M223.87,100.36a.76.76,0,0,1-.56.25c-1.45,0-2.63-.06-3.5-.06a1.66,1.66,0,0,0-1.17.56,1.78,1.78,0,0,0-.53,1.32v9.28a.67.67,0,0,1-.76.75h-1.63a.65.65,0,0,1-.75-.72v-9.31a4.38,4.38,0,0,1,1.4-3.33,4.65,4.65,0,0,1,3.47-1.26c.45,0,1.62.06,3.53.14a.69.69,0,0,1,.75.76v1.12A.63.63,0,0,1,223.87,100.36Z" transform="translate(-29.38 -15.63)"/><path class="cls-2" d="M237.38,112.46h-6.3a4.84,4.84,0,0,1-3.44-1.28,4.22,4.22,0,0,1-1.43-3.27,4.26,4.26,0,0,1,1.4-3.27,4.93,4.93,0,0,1,3.47-1.29H235v-.92a1.84,1.84,0,0,0-.5-1.32,1.66,1.66,0,0,0-1.21-.53,19.55,19.55,0,0,0-3.55.23.65.65,0,0,1-.65-.23.7.7,0,0,1-.22-.5V98.9c0-.36.2-.58.62-.69a15.34,15.34,0,0,1,3.8-.34,4.83,4.83,0,0,1,3.45,1.29,4.22,4.22,0,0,1,1.43,3.27v9.31C238.14,112.21,237.89,112.46,237.38,112.46Zm-2.41-6.4h-3.89a1.54,1.54,0,0,0-1.2.53,1.87,1.87,0,0,0,0,2.6,1.65,1.65,0,0,0,1.23.56H235Z" transform="translate(-29.38 -15.63)"/><path class="cls-2" d="M245.75,94.8H243a.66.66,0,0,1-.76-.73V92.75c0-.47.25-.72.76-.72h2.71c.51,0,.76.25.76.72v1.32A.66.66,0,0,1,245.75,94.8Zm-.53,17.66h-1.65a.66.66,0,0,1-.76-.72V98.6a.66.66,0,0,1,.76-.73h1.65c.51,0,.76.25.76.73v13.14C246,112.21,245.73,112.46,245.22,112.46Z" transform="translate(-29.38 -15.63)"/><path class="cls-2" d="M261.81,112.46h-1.65a.66.66,0,0,1-.76-.72v-9.31a1.79,1.79,0,0,0-.5-1.29,1.69,1.69,0,0,0-1.2-.56h-2.19a1.56,1.56,0,0,0-1.2.53,1.78,1.78,0,0,0-.53,1.32l0,9.31c0,.47-.25.72-.78.72H251.4c-.51,0-.76-.25-.76-.72v-9.31a4.26,4.26,0,0,1,1.4-3.27,4.93,4.93,0,0,1,3.47-1.29h2.19a4.81,4.81,0,0,1,3.44,1.29,4.22,4.22,0,0,1,1.43,3.27v9.31C262.57,112.21,262.32,112.46,261.81,112.46Z" transform="translate(-29.38 -15.63)"/><path class="cls-2" d="M270.19,94.8h-2.72a.67.67,0,0,1-.76-.73V92.75a.66.66,0,0,1,.76-.72h2.72a.65.65,0,0,1,.75.72v1.32A.66.66,0,0,1,270.19,94.8Zm-.54,17.66H268a.65.65,0,0,1-.75-.72V98.6a.66.66,0,0,1,.75-.73h1.65c.51,0,.76.25.76.73v13.14C270.41,112.21,270.16,112.46,269.65,112.46Z" transform="translate(-29.38 -15.63)"/><path class="cls-2" d="M286.25,112.46h-1.66a.65.65,0,0,1-.75-.72v-9.31a1.8,1.8,0,0,0-.51-1.29,1.67,1.67,0,0,0-1.2-.56h-2.19a1.57,1.57,0,0,0-1.2.53,1.82,1.82,0,0,0-.53,1.32l0,9.31c0,.47-.26.72-.79.72h-1.62c-.51,0-.76-.25-.76-.72v-9.31a4.3,4.3,0,0,1,1.4-3.27,4.93,4.93,0,0,1,3.47-1.29h2.19a4.81,4.81,0,0,1,3.44,1.29,4.19,4.19,0,0,1,1.43,3.27v9.31A.65.65,0,0,1,286.25,112.46Z" transform="translate(-29.38 -15.63)"/><path class="cls-2" d="M301.79,117.25a5.44,5.44,0,0,1-3.41,1.06h-2.19a5.2,5.2,0,0,1-3.47-1.18,4.07,4.07,0,0,1-1.4-3.21.71.71,0,0,1,.81-.79h1.52c.53,0,.81.26.81.76a1.6,1.6,0,0,0,.47,1.2,1.79,1.79,0,0,0,1.26.45h2.19c1.15,0,1.71-.48,1.71-1.43s-.56-1.34-1.71-1.37l-2.21,0a5,5,0,0,1-3.42-1.32,4.3,4.3,0,0,1-1.43-3.32v-5.57a4.41,4.41,0,0,1,1.4-3.33,5,5,0,0,1,3.47-1.31h2.19a4.86,4.86,0,0,1,3.44,1.31,4.33,4.33,0,0,1,1.43,3.33v1.85a4.4,4.4,0,0,1-1.4,3.3,4.88,4.88,0,0,1-3.47,1.34h-3.67a1.6,1.6,0,0,0,1.48,1h2.19a5.38,5.38,0,0,1,3.41,1.06,4.06,4.06,0,0,1,0,6.24Zm-1.7-14.74a1.88,1.88,0,0,0-.51-1.34,1.67,1.67,0,0,0-1.2-.56h-2.19a1.6,1.6,0,0,0-1.2.56,1.87,1.87,0,0,0-.5,1.34v3.72h3.89a1.6,1.6,0,0,0,1.18-.56,1.8,1.8,0,0,0,.53-1.31Z" transform="translate(-29.38 -15.63)"/><path class="cls-2" d="M310.68,112.46H307.9a.65.65,0,0,1-.75-.72v-1.29a.66.66,0,0,1,.75-.73h2.78a.66.66,0,0,1,.75.73v1.29A.65.65,0,0,1,310.68,112.46Z" transform="translate(-29.38 -15.63)"/><path class="cls-2" d="M329.83,110.93a7,7,0,0,1-4.7,1.59c-4.45,0-6.66-.53-6.66-1.62V110a.88.88,0,0,1,.19-.56.67.67,0,0,1,.59-.28.56.56,0,0,1,.22,0,23.72,23.72,0,0,0,5.66.53,3.85,3.85,0,0,0,2.35-.7,2.82,2.82,0,0,0,1.15-2.46c0-.65-.45-1.23-1.4-1.79-.17-.11-1-.45-2.3-1a38.68,38.68,0,0,1-4.22-2A4.38,4.38,0,0,1,318.47,98a5.52,5.52,0,0,1,1.95-4.41,7,7,0,0,1,4.71-1.6c4.4,0,6.58.53,6.58,1.63v.92a1,1,0,0,1-.22.56.69.69,0,0,1-.59.28.63.63,0,0,1-.23,0,23,23,0,0,0-5.54-.53,3.81,3.81,0,0,0-2.35.7,2.81,2.81,0,0,0-1.18,2.43c0,.64.48,1.23,1.43,1.79.28.17,1,.5,2.3,1a29.61,29.61,0,0,1,4.23,2,4.5,4.5,0,0,1,2.23,3.72A5.57,5.57,0,0,1,329.83,110.93Z" transform="translate(-29.38 -15.63)"/><path class="cls-2" d="M346.24,110.37a5.79,5.79,0,0,1-4.51,2.09l-3.19,0v5.09c0,.48-.26.73-.79.73h-1.62c-.51,0-.76-.25-.76-.73V102.51a4.41,4.41,0,0,1,1.4-3.33,5,5,0,0,1,3.45-1.31h1.48a5.72,5.72,0,0,1,4.54,2.07,7.85,7.85,0,0,1,1.82,5.23A7.63,7.63,0,0,1,346.24,110.37Zm-2.33-8.58a2.58,2.58,0,0,0-2.18-1.21l-1.49,0a1.6,1.6,0,0,0-1.2.56,1.82,1.82,0,0,0-.53,1.34l0,7.19h3.16a2.7,2.7,0,0,0,2.21-1.18,5.23,5.23,0,0,0,1-3.35A5.33,5.33,0,0,0,343.91,101.79Z" transform="translate(-29.38 -15.63)"/><path class="cls-2" d="M361.82,111.18a5,5,0,0,1-3.47,1.28h-2.22a4.82,4.82,0,0,1-3.41-1.28,4.22,4.22,0,0,1-1.43-3.27v-5.48a4.24,4.24,0,0,1,1.4-3.25,5,5,0,0,1,3.47-1.31h2.19a4.82,4.82,0,0,1,3.44,1.29,4.22,4.22,0,0,1,1.43,3.27v5.48A4.33,4.33,0,0,1,361.82,111.18Zm-1.77-8.75a1.83,1.83,0,0,0-.5-1.29,1.69,1.69,0,0,0-1.2-.56h-2.19a1.54,1.54,0,0,0-1.2.53,1.88,1.88,0,0,0-.51,1.32l0,5.48a1.79,1.79,0,0,0,.51,1.28,1.65,1.65,0,0,0,1.23.56h2.19a1.54,1.54,0,0,0,1.17-.53,1.8,1.8,0,0,0,.53-1.31Z" transform="translate(-29.38 -15.63)"/><path class="cls-2" d="M376.1,100.36a.8.8,0,0,1-.57.25c-1.45,0-2.63-.06-3.49-.06a1.66,1.66,0,0,0-1.18.56,1.82,1.82,0,0,0-.53,1.32v9.28a.67.67,0,0,1-.76.75H368c-.51,0-.76-.25-.76-.72v-9.31a4.41,4.41,0,0,1,1.4-3.33,4.66,4.66,0,0,1,3.47-1.26c.45,0,1.63.06,3.53.14.51,0,.76.28.76.76v1.12A.66.66,0,0,1,376.1,100.36Z" transform="translate(-29.38 -15.63)"/><path class="cls-2" d="M386.19,112.38l-1.18.08a4.31,4.31,0,0,1-3.47-1.23,4.48,4.48,0,0,1-1.43-3.38V94.94c0-.4.33-.68,1-.82l1.34-.16a.67.67,0,0,1,.59.16.8.8,0,0,1,.25.56v3.25h2.89a.65.65,0,0,1,.75.72v1.29a.66.66,0,0,1-.75.73h-2.89v7.18a1.85,1.85,0,0,0,.51,1.32,1.56,1.56,0,0,0,1.2.55h1.18a.66.66,0,0,1,.75.73v1.2A.67.67,0,0,1,386.19,112.38Z" transform="translate(-29.38 -15.63)"/><path class="cls-2" d="M394.22,112.46h-2.78a.65.65,0,0,1-.75-.72v-1.29a.66.66,0,0,1,.75-.73h2.78a.66.66,0,0,1,.75.73v1.29A.65.65,0,0,1,394.22,112.46Z" transform="translate(-29.38 -15.63)"/><path class="cls-2" d="M414,94.77h-4.71v17c0,.47-.25.72-.78.72h-1.62c-.53,0-.79-.25-.79-.72v-17h-4.7c-.51,0-.76-.25-.76-.73V92.75a.67.67,0,0,1,.76-.75H414a.67.67,0,0,1,.76.75V94A.66.66,0,0,1,414,94.77Z" transform="translate(-29.38 -15.63)"/><path class="cls-2" d="M430,112.46H428.3a.65.65,0,0,1-.75-.72v-9.23a1.81,1.81,0,0,0-.51-1.31,1.63,1.63,0,0,0-1.2-.56H422v11.1a.66.66,0,0,1-.76.72h-1.65a.66.66,0,0,1-.76-.72V93c0-.4.34-.67,1-.81l1.32-.17a.61.61,0,0,1,.58.19.75.75,0,0,1,.26.53v5.12h3.89a4.91,4.91,0,0,1,3.45,1.31,4.33,4.33,0,0,1,1.42,3.33v9.23A.65.65,0,0,1,430,112.46Z" transform="translate(-29.38 -15.63)"/><path class="cls-2" d="M445.51,105.7A5,5,0,0,1,442,107h-3.89v.93a1.79,1.79,0,0,0,.51,1.28,1.56,1.56,0,0,0,1.2.56,18,18,0,0,0,4.23-.39.64.64,0,0,1,.67.17.81.81,0,0,1,.25.53v1.15c0,.83-1.7,1.25-5.15,1.25a4.84,4.84,0,0,1-3.44-1.28,4.22,4.22,0,0,1-1.43-3.27v-5.48a4.24,4.24,0,0,1,1.4-3.25,5,5,0,0,1,3.47-1.31H442a4.81,4.81,0,0,1,3.45,1.29,4.22,4.22,0,0,1,1.43,3.27A4.33,4.33,0,0,1,445.51,105.7Zm-2.27-4.56a1.71,1.71,0,0,0-1.21-.56h-2.18a1.56,1.56,0,0,0-1.2.53,1.88,1.88,0,0,0-.51,1.32v1.84H442a1.56,1.56,0,0,0,1.18-.53,1.76,1.76,0,0,0,.53-1.31A1.79,1.79,0,0,0,443.24,101.14Z" transform="translate(-29.38 -15.63)"/><path class="cls-2" d="M459.73,100.36a.8.8,0,0,1-.56.25c-1.46,0-2.63-.06-3.5-.06a1.7,1.7,0,0,0-1.18.56,1.82,1.82,0,0,0-.53,1.32v9.28a.67.67,0,0,1-.76.75h-1.62c-.51,0-.76-.25-.76-.72v-9.31a4.41,4.41,0,0,1,1.4-3.33,4.67,4.67,0,0,1,3.48-1.26c.44,0,1.62.06,3.52.14.51,0,.76.28.76.76v1.12A.63.63,0,0,1,459.73,100.36Z" transform="translate(-29.38 -15.63)"/><path class="cls-2" d="M473.24,112.46h-6.3a4.87,4.87,0,0,1-3.45-1.28,4.25,4.25,0,0,1-1.43-3.27,4.3,4.3,0,0,1,1.4-3.27,5,5,0,0,1,3.48-1.29h3.89v-.92a1.85,1.85,0,0,0-.51-1.32,1.64,1.64,0,0,0-1.2-.53,19.68,19.68,0,0,0-3.56.23.64.64,0,0,1-.64-.23.71.71,0,0,1-.23-.5V98.9c0-.36.2-.58.62-.69a15.38,15.38,0,0,1,3.81-.34,4.85,4.85,0,0,1,3.45,1.29,4.21,4.21,0,0,1,1.42,3.27v9.31A.65.65,0,0,1,473.24,112.46Zm-2.41-6.4h-3.89a1.58,1.58,0,0,0-1.21.53,1.9,1.9,0,0,0,0,2.6,1.68,1.68,0,0,0,1.24.56h3.89Z" transform="translate(-29.38 -15.63)"/><path class="cls-2" d="M489.13,110.37a5.75,5.75,0,0,1-4.5,2.09l-3.2,0v5.09c0,.48-.25.73-.78.73H479c-.51,0-.76-.25-.76-.73V102.51a4.41,4.41,0,0,1,1.4-3.33,5,5,0,0,1,3.44-1.31h1.49a5.69,5.69,0,0,1,4.53,2.07,7.8,7.8,0,0,1,1.82,5.23A7.58,7.58,0,0,1,489.13,110.37Zm-2.32-8.58a2.59,2.59,0,0,0-2.18-1.21l-1.49,0a1.59,1.59,0,0,0-1.2.56,1.78,1.78,0,0,0-.53,1.34l0,7.19h3.17a2.72,2.72,0,0,0,2.21-1.18,5.23,5.23,0,0,0,1-3.35A5.33,5.33,0,0,0,486.81,101.79Z" transform="translate(-29.38 -15.63)"/><path class="cls-2" d="M498,94.8h-2.72a.67.67,0,0,1-.76-.73V92.75a.66.66,0,0,1,.76-.72H498a.65.65,0,0,1,.75.72v1.32A.66.66,0,0,1,498,94.8Zm-.53,17.66h-1.66a.65.65,0,0,1-.75-.72V98.6a.66.66,0,0,1,.75-.73h1.66a.66.66,0,0,1,.75.73v13.14A.65.65,0,0,1,497.42,112.46Z" transform="translate(-29.38 -15.63)"/><path class="cls-2" d="M513,105.7a5,5,0,0,1-3.47,1.28h-3.9v.93a1.79,1.79,0,0,0,.51,1.28,1.56,1.56,0,0,0,1.2.56,18,18,0,0,0,4.23-.39.64.64,0,0,1,.67.17.82.82,0,0,1,.26.53v1.15c0,.83-1.71,1.25-5.16,1.25a4.84,4.84,0,0,1-3.44-1.28,4.22,4.22,0,0,1-1.43-3.27v-5.48a4.24,4.24,0,0,1,1.4-3.25,5,5,0,0,1,3.47-1.31h2.19A4.81,4.81,0,0,1,513,99.16a4.22,4.22,0,0,1,1.43,3.27A4.33,4.33,0,0,1,513,105.7Zm-2.27-4.56a1.67,1.67,0,0,0-1.2-.56h-2.19a1.56,1.56,0,0,0-1.2.53,1.88,1.88,0,0,0-.51,1.32v1.84h3.9a1.53,1.53,0,0,0,1.17-.53,1.76,1.76,0,0,0,.53-1.31A1.79,1.79,0,0,0,510.74,101.14Z" transform="translate(-29.38 -15.63)"/><path class="cls-2" d="M520.61,112.46h-2.77a.65.65,0,0,1-.75-.72v-1.29a.66.66,0,0,1,.75-.73h2.77a.66.66,0,0,1,.76.73v1.29C521.37,112.21,521.12,112.46,520.61,112.46Z" transform="translate(-29.38 -15.63)"/></svg>