<?xml version="1.0" encoding="UTF-8" standalone="no"?>
<!DOCTYPE svg PUBLIC "-//W3C//DTD SVG 1.1//EN" "http://www.w3.org/Graphics/SVG/1.1/DTD/svg11.dtd">
<svg width="100%" height="100%" viewBox="0 0 500 500" version="1.1" xmlns="http://www.w3.org/2000/svg" xmlns:xlink="http://www.w3.org/1999/xlink" xml:space="preserve" xmlns:serif="http://www.serif.com/" style="fill-rule:evenodd;clip-rule:evenodd;stroke-linejoin:round;stroke-miterlimit:2;">
    <g transform="matrix(5,0,0,5,0,0)">
        <path d="M99.999,10L99.999,90C99.999,95.519 95.518,100 89.999,100L10,100C4.481,100 0,95.519 0,90L0,10C0,4.481 4.481,0 10,0L89.999,0C95.518,0 99.999,4.481 99.999,10Z" style="fill:rgb(166,19,128);"/>
    </g>
    <g id="YM-Yoga-Logo-neg" transform="matrix(4.50005,0,0,4.50005,-234.79,-1270.59)">
        <path d="M136.633,347.709C135.474,346.584 133.887,346.008 132.276,346.13C130.647,346.134 129.036,346.463 127.536,347.097L127.536,360.145L129.676,360.145L129.676,348.345C130.546,348.012 131.471,347.848 132.402,347.86C134.314,347.86 135.613,348.803 135.613,350.36L135.613,360.145L137.729,360.145L137.729,349.034C138.516,348.245 139.597,347.819 140.711,347.861C140.795,347.853 140.88,347.849 140.964,347.849C142.462,347.849 143.694,349.082 143.694,350.579C143.694,350.616 143.694,350.654 143.692,350.691L143.692,360.145L145.808,360.145L145.808,350.513C145.808,347.837 143.948,346.13 141.119,346.13C139.482,346.095 137.888,346.656 136.634,347.709M149.35,356.175C149.35,353.322 152.663,353.143 155.721,352.965L155.721,358.391C154.827,358.692 153.888,358.839 152.944,358.825C150.55,358.816 149.35,357.775 149.35,356.175M148.15,347.103L148.711,348.603C149.891,348.078 151.162,347.793 152.453,347.762C154.365,347.762 155.716,348.399 155.716,350.438L155.716,351.483C151.562,351.713 147.333,352.3 147.333,356.223C147.333,358.823 149.217,360.429 152.989,360.429C154.621,360.453 156.238,360.123 157.729,359.46L157.729,350.611C157.729,347.348 155.716,346.127 152.629,346.127C151.084,346.145 149.558,346.474 148.143,347.094M83.153,328.622C83.153,322.808 85.403,318.73 89.996,318.73C94.589,318.73 96.84,322.808 96.84,328.622C96.84,334.436 94.59,338.606 89.996,338.606C85.402,338.606 83.153,334.434 83.153,328.622M79.262,328.668C79.262,336.168 83.012,341.841 89.996,341.841C96.98,341.841 100.731,336.169 100.731,328.668C100.731,321.167 96.981,315.542 90,315.542C83.019,315.542 79.266,321.172 79.266,328.668M107.224,328.2C107.224,321.355 110.786,318.683 115.239,318.683C116.731,318.659 118.212,318.931 119.598,319.483L119.598,336.312C118.079,336.986 116.432,337.321 114.77,337.296C110.37,337.296 107.224,334.249 107.224,328.203M103.333,328.343C103.333,336.031 107.833,340.39 114.162,340.39C116.032,340.395 117.883,340.012 119.598,339.265L119.598,341.421C119.598,345.969 117.298,348.547 112.755,348.547C110.35,348.526 107.98,347.965 105.821,346.906L104.6,350C107.239,351.24 110.121,351.879 113.037,351.871C119.599,351.871 123.444,348.071 123.444,341.414L123.444,317.32C120.963,316.113 118.234,315.503 115.475,315.538C108.49,315.538 103.334,319.476 103.334,328.338M130.386,334.014C130.386,328.769 136.481,328.439 142.106,328.109L142.106,338.095C140.461,338.649 138.733,338.92 136.997,338.895C132.597,338.895 130.386,336.973 130.386,334.019M128.186,317.326L129.217,320.092C131.389,319.125 133.731,318.599 136.107,318.544C139.623,318.544 142.107,319.716 142.107,323.466L142.107,325.388C134.466,325.81 126.684,326.888 126.684,334.107C126.684,338.89 130.153,341.843 137.091,341.843C140.092,341.888 143.067,341.28 145.81,340.061L145.81,323.793C145.81,317.793 142.11,315.538 136.435,315.538C133.592,315.57 130.784,316.176 128.18,317.32M75.64,315.381L68.94,327.834L68.84,327.834L62.183,315.38L57.73,315.38L66.966,331.525L66.966,341.91L70.858,341.91L70.858,331.525L80.093,315.38L75.64,315.381Z" style="fill:white;fill-rule:nonzero;"/>
    </g>
</svg>
