<?xml version="1.0" encoding="UTF-8"?>
<!-- Generator: Adobe Illustrator 25.4.1, SVG Export Plug-In . SVG Version: 6.00 Build 0)  -->
<svg version="1.1" id="Ebene_1" xmlns="http://www.w3.org/2000/svg" xmlns:xlink="http://www.w3.org/1999/xlink" x="0px" y="0px" viewBox="0 0 200 96" style="enable-background:new 0 0 200 96;" xml:space="preserve">
<style type="text/css">
	.st0{fill:#05141D;}
	.st1{fill:#00983A;}
	.st2{fill:#82368C;}
	.st3{fill:#DC0B3D;}
	.st4{fill:#464294;}
</style>
<g>
	<g>
		<g>
			<path class="st0" d="M192.9,43.8c0,0-2.1,1.7-3.9,1.7c-2.2,0-2.4-2.6-3.6-3.7c-0.6-1.9-1.6-3.2-3.2-3.9c-3.8,0-9.3,6.7-10.1,5.9     c-0.9-1.4,1.5-9.1,1.5-9.6c-0.3-2.2-0.8-2.8-1.9-2.7c-5.1,0.3-13.3,10.1-13.5,10.1c-0.3,0-0.4-0.2-0.4-0.6c0-0.7,2.6-8.3-0.7-8.3     c-11-0.2-24,33.6-28.3,31.6c-1.9-0.9-0.5-13.1-0.4-15.5l2.8-1.7v-4.8l-2.3,1.5c6.2-13.3,11-31,6.5-37.4c-1.4-2-1.2-1.4-2.8-1.2     c-1.8,0.2-9.9,16.5-8.8,33.7c-0.7,1.8-5.2,4.3-5.2,4.6c-0.8,0-1.6,1.7-4.4,1.4c-7.6-0.7-4.5-11.2-4.4-12.3c0.9-2.5,5-11,7.8-20.8     c0.4-1.4,0.9-4-0.9-4.4c-1.5-0.3-8.6,12.2-9.1,14.2c-0.8,0.9-1.9,6.3-2.9,6.3c-1.1,0-9.1,5.9-9.3,6.3c-1.9,1.3-6.4,6.1-7.2,7.3     c-1,0.3-1.3,1.1-2.9,2c-0.6,0.3-0.7,4.7-0.5,4.7c0.5,0,2.2-1.1,2.2-1c0,0.3-1.8,2.5-1.4,5c0.2,1.8,1.5,2.7,3.5,2.6     c3.2-0.1,7.9-4.2,9.1-5.9c3.3-3.3,5-7.6,5.5-7.1c0.7,0.7,0.8,7.8,7.6,8.3c3.4,0,4.5-1.4,6.7-1.9c0.5,0,5.1-3.7,5.6-3.7     c0.1,0,0,1.4-0.1,2l-3.7,2.5l-3,6.8l6.4-3.9c0,0.5-0.5,3.6-0.5,7.3c0,2.4-0.1,13.6,4.8,13.7c7.7,0.2,24.9-42,23.7-30     c-0.4,4-2.8,7.7-2.8,9.9c0,0.3,0.6,1.1,1.9,1.1c1.6,0,13.6-13.2,15.5-13.2c0.5,0,0.7,0.1,0.7,0.9c-0.6,1.6-3.2,11-3.2,12     c0,0.3,0.6,0.7,1,1.1c2.2,0,8.6-7.9,13-10.2c3.2,0,4.5,3.6,6,4.6c0.5,0.6,2.5,1.6,3.6,1.6c3.8,0,6-2.3,6-2.3     S192.9,44.2,192.9,43.8z M133.5,11.8c2.3,0.6-0.9,20.6-3.2,19.4C128.1,30,132.4,11.5,133.5,11.8z M99.8,41.4     c-1.4,2-5.3,6.7-6.6,6.7c0-2.6,3-5.7,4.5-8c2.1-2.7,5.6-7.7,6.5-6.5C105.3,35,100.9,40.2,99.8,41.4z"/>
		</g>
	</g>
</g>
<path class="st0" d="M7,82.4c0,0,41.3-20.2,84.6-22.3c10.3-0.5,19.8-0.6,28.4-0.5l0.8,5.8c-9,0.1-17.3,0.5-25.2,1.1  C56.1,69.4,10.5,89,10.5,89l3.8-3.4L7,82.4L7,82.4z"/>
<path class="st0" d="M140.6,60.3c29.4,1.8,46.4,6.4,46.4,6.4s-24.8-1.1-49.3-1.3L140.6,60.3L140.6,60.3z"/>
<polygon class="st1" points="18.7,50.5 33.8,50.5 33.8,65.6 18.7,65.6 "/>
<polygon class="st2" points="31.8,45.9 46.9,45.9 46.9,61 31.8,61 "/>
<polygon class="st3" points="44.9,41.9 60,41.9 60,57 44.9,57 "/>
<polygon class="st4" points="57.7,37.3 72.8,37.3 72.8,52.4 57.7,52.4 "/>
<path class="st0" d="M85.3,78.5h1.3c3.2,0,4.8,1.7,4.8,5c0,3-1.4,5.3-4.5,5.3h-1.5V78.5z M86.1,87.9H87c2.2,0,3.3-1.7,3.3-4.3  c0-1.6-0.2-4.3-3.5-4.3h-0.7V87.9z"/>
<path class="st0" d="M92.8,78.3h1v1.3h-1V78.3z M92.9,81.2h0.8v7.5h-0.8V81.2z"/>
<path class="st0" d="M96.2,85.3c0,2.8,1.7,2.8,2,2.8c0.5,0,1.1-0.2,1.5-0.6l0,1c-0.3,0.2-0.8,0.4-1.7,0.4c-2.8,0-2.8-3.1-2.8-3.8  c0-2.8,1.3-3.8,2.5-3.8c2.1,0,2.3,2.3,2.3,4.1C100.1,85.3,96.2,85.3,96.2,85.3z M99.3,84.5c0-2-0.8-2.5-1.5-2.5  c-1.1,0-1.6,1.6-1.6,2.5H99.3z"/>
<path class="st0" d="M101.7,83.6c0-0.8,0-1.5-0.1-2.3h0.8c0,0.3,0,0.6,0.1,1.1h0c0.2-0.3,0.6-1.2,1.8-1.2c2,0,2,2.1,2,2.6v5h-0.8v-5  c0-0.5,0-1.7-1.3-1.7c-1,0-1.6,1-1.6,2.1v4.6h-0.8L101.7,83.6L101.7,83.6z"/>
<path class="st0" d="M111.1,82.2c-0.4-0.2-0.8-0.3-1.2-0.3c-0.8,0-1.2,0.7-1.2,1.2c0,0.7,0.3,0.8,1.2,1.4c1,0.6,1.7,0.9,1.7,2.1  c0,1.3-0.9,2.2-2.1,2.2c-0.9,0-1.4-0.2-1.8-0.4l0.1-1c0.2,0.2,1,0.5,1.6,0.5c0.8,0,1.3-0.6,1.3-1.3c0-0.7-0.4-1-1.3-1.5  c-1.2-0.6-1.7-1-1.7-2.1c0-1.4,1.1-2.1,2.1-2.1c0.5,0,1,0.1,1.3,0.2L111.1,82.2z"/>
<path class="st0" d="M114.2,79.5v1.8h1.5V82h-1.5v4.9c0,0.6,0.1,1.1,0.8,1.1c0.4,0,0.5-0.1,0.7-0.2v0.8c-0.2,0.1-0.6,0.1-0.9,0.1  c-1,0-1.3-0.8-1.3-1.7V82h-1.1v-0.8h1.1v-1.5L114.2,79.5z"/>
<path class="st0" d="M117.4,85.3c0,2.8,1.7,2.8,2,2.8c0.5,0,1.1-0.2,1.5-0.6l0,1c-0.3,0.2-0.8,0.4-1.7,0.4c-2.8,0-2.8-3.1-2.8-3.8  c0-2.8,1.3-3.8,2.5-3.8c2.1,0,2.3,2.3,2.3,4.1C121.3,85.3,117.4,85.3,117.4,85.3z M120.5,84.5c0-2-0.8-2.5-1.5-2.5  c-1.1,0-1.6,1.6-1.6,2.5H120.5z"/>
<path class="st0" d="M126.6,82h-1.1v-0.8h1.1v-1.6c0-1.1,0.3-2.1,1.7-2.1c0.3,0,0.5,0,0.6,0.1v0.8c-0.1-0.1-0.4-0.1-0.6-0.1  c-0.7,0-0.9,0.5-0.9,1.1v1.8h1.3V82h-1.3v6.7h-0.8C126.6,88.7,126.6,82,126.6,82z"/>
<path class="st0" d="M134.4,86.4c0,0.8,0,1.5,0.1,2.3h-0.8c0-0.3,0-0.6-0.1-1.1h0c-0.1,0.3-0.6,1.2-1.8,1.2c-1.5,0-2-1.2-2-2.4v-5.2  h0.8v5c0,0.5,0,1.7,1.3,1.7c1,0,1.6-1,1.6-2.1v-4.6h0.8L134.4,86.4L134.4,86.4z M130.6,78.3h0.8v1.4h-0.8V78.3z M132.7,78.3h0.8v1.4  h-0.8V78.3z"/>
<path class="st0" d="M136.3,83.6c0-0.8,0-1.5-0.1-2.3h0.8c0,0.4,0,0.9,0.1,1.2h0c0.5-1.1,1.1-1.3,1.9-1.3V82c-1.3,0-1.9,0.6-1.9,2  v4.7h-0.8L136.3,83.6L136.3,83.6z"/>
<path class="st0" d="M143.4,78.5h1.3l2.7,8.9h0l2.7-8.9h1.3v10.2h-0.8v-9.4h0l-2.9,9.4h-0.7l-2.9-9.4h0v9.4h-0.8V78.5z"/>
<path class="st0" d="M154,85.3c0,2.8,1.7,2.8,2,2.8c0.5,0,1.1-0.2,1.5-0.6l0,1c-0.3,0.2-0.8,0.4-1.7,0.4c-2.8,0-2.8-3.1-2.8-3.8  c0-2.8,1.3-3.8,2.5-3.8c2.1,0,2.3,2.3,2.3,4.1C158,85.3,154,85.3,154,85.3z M157.1,84.5c0-2-0.8-2.5-1.4-2.5c-1.1,0-1.6,1.6-1.6,2.5  H157.1z"/>
<path class="st0" d="M159.5,83.6c0-0.8,0-1.5-0.1-2.3h0.8c0,0.3,0,0.6,0.1,1.1h0c0.2-0.3,0.6-1.2,1.8-1.2c2,0,2,2.1,2,2.6v5h-0.8v-5  c0-0.5,0-1.7-1.3-1.7c-1,0-1.6,1-1.6,2.1v4.6h-0.8L159.5,83.6L159.5,83.6z"/>
<path class="st0" d="M168.9,82.2c-0.4-0.2-0.8-0.3-1.2-0.3c-0.8,0-1.2,0.7-1.2,1.2c0,0.7,0.3,0.8,1.2,1.4c1,0.6,1.7,0.9,1.7,2.1  c0,1.3-0.9,2.2-2.1,2.2c-0.9,0-1.4-0.2-1.8-0.4l0.1-1c0.2,0.2,1,0.5,1.6,0.5c0.8,0,1.3-0.6,1.3-1.3c0-0.7-0.4-1-1.3-1.5  c-1.2-0.6-1.7-1-1.7-2.1c0-1.4,1.1-2.1,2.1-2.1c0.5,0,1,0.1,1.3,0.2L168.9,82.2z"/>
<path class="st0" d="M174.7,82.4c-0.3-0.3-0.9-0.4-1.3-0.4c-1.1,0-2.1,0.8-2.1,2.8c0,2.7,1.4,3.2,2.2,3.2c0.3,0,1-0.1,1.2-0.4l0.1,1  c-0.4,0.2-0.9,0.3-1.4,0.3c-1.5,0-3-1.2-3-3.8c0-2.3,1-3.9,2.9-3.9c0.6,0,1,0.1,1.3,0.3L174.7,82.4z"/>
<path class="st0" d="M176,77.7h0.8v4.6h0c0.1-0.3,0.6-1.2,1.8-1.2c2,0,2,2.1,2,2.6v5h-0.8v-5c0-0.5,0-1.7-1.3-1.7  c-1,0-1.6,1-1.6,2.1v4.6H176L176,77.7L176,77.7z"/>
<path class="st0" d="M183,85.3c0,2.8,1.7,2.8,2,2.8c0.5,0,1.1-0.2,1.5-0.6l0,1c-0.3,0.2-0.8,0.4-1.7,0.4c-2.8,0-2.8-3.1-2.8-3.8  c0-2.8,1.3-3.8,2.5-3.8c2.1,0,2.3,2.3,2.3,4.1C186.9,85.3,183,85.3,183,85.3z M186,84.5c0-2-0.8-2.5-1.5-2.5c-1.1,0-1.6,1.6-1.6,2.5  H186z"/>
<path class="st0" d="M188.4,83.6c0-0.8,0-1.5-0.1-2.3h0.8c0,0.3,0,0.6,0.1,1.1h0c0.2-0.3,0.6-1.2,1.8-1.2c2,0,2,2.1,2,2.6v5h-0.8v-5  c0-0.5,0-1.7-1.3-1.7c-1,0-1.6,1-1.6,2.1v4.6h-0.8L188.4,83.6L188.4,83.6z"/>
</svg>