<?xml version="1.0" encoding="UTF-8"?>
<svg viewBox="0 0 227.74 78.4" xmlns="http://www.w3.org/2000/svg">
<defs>
<style>.cls-1{fill:#868686;}.cls-2{fill:#ed7203;}.cls-3{fill:#e5007e;}</style>
</defs>
<g data-name="Ebene 2">
<g data-name="Ebene 1">
<path class="cls-1" d="M108.78,7.14A9.65,9.65,0,0,0,104.48,6c-1.53,0-2.62.88-2.62,2.19,0,3.64,8.18,3.54,8.18,9,0,3.64-2.82,5.08-6.31,5.08a15.53,15.53,0,0,1-4.4-.66V18.86a10.42,10.42,0,0,0,4.82,1.54c1.82,0,3.12-.76,3.12-2.52,0-4-8.17-3.72-8.17-9.13,0-2.81,2.09-4.45,5.68-4.45a23.33,23.33,0,0,1,4,.45Z"/>
<path class="cls-1" d="m112.55 10h2.54v2a3.35 3.35 0 0 1 3.1-2.24c3.47 0 4.52 2.82 4.52 6.27 0 3.6-1.33 6.26-4.52 6.26a3.25 3.25 0 0 1-3.1-1.94v7h-2.54zm5 10.79c2 0 2.42-2.72 2.42-4.8s-0.38-4.65-2.42-4.65-2.36 2.66-2.36 4.66 0.2 4.8 2.39 4.8z"/>
<path class="cls-1" d="M124.75,16c0-4,1.76-6.27,5.28-6.27s5.31,2.22,5.31,6.27-1.79,6.26-5.31,6.26S124.75,20,124.75,16Zm5.28,5.2c2.26,0,2.54-3,2.54-5.2s-.28-5.21-2.54-5.21-2.51,3-2.51,5.21.27,5.2,2.51,5.2Z"/>
<path class="cls-1" d="M138.2,10h2.54v3h.06c.8-1.61,1.68-3.15,3.87-3.32v2.64c-2.44.07-3.93.9-3.93,4.12v5.49H138.2Z"/>
<path class="cls-1" d="M153.34,22a8,8,0,0,1-1.76.18c-2.39,0-3.77-.73-3.77-3.05v-7.9H145.9V10h1.91V7.14l2.54-1.54V10h3.27v1.3h-3.27v6.9c0,1.76.18,2.61,1.81,2.61a3.12,3.12,0,0,0,1.18-.2Z"/>
<path class="cls-1" d="m155.31 14.41h8.62v2.29h-8.62z"/>
<path class="cls-1" d="M181.32,19.09h0c-.4.88-1.54,3.12-4.18,3.12-2.11,0-3-1.76-3-3.5V10h2.54v7.5c0,1.5.23,2.86,1.51,2.86,2.52,0,3.22-3.92,3.22-5.4V10h2.54v12h-2.56Z"/>
<path class="cls-1" d="M187.6,10h2.54V12.8h.05c.4-.88,1.56-3.12,4.2-3.12,2.11,0,3,1.76,3,3.5v8.75h-2.54v-7.5c0-1.51-.23-2.86-1.51-2.86-2.52,0-3.22,3.92-3.22,5.4v5H187.6Z"/>
<path class="cls-1" d="M208,20h-.06a3.34,3.34,0,0,1-3.11,2.24c-3.45,0-4.5-2.82-4.5-6.27s1.33-6.26,4.5-6.26a3.24,3.24,0,0,1,3.11,1.94H208v-7h2.54V21.93H208Zm-2.5.63c2.09,0,2.39-2.67,2.39-4.65s-.2-4.8-2.39-4.8c-2,0-2.41,2.71-2.41,4.8S203.42,20.6,205.45,20.6Z"/>
<path class="cls-1" d="M98.84,29.57h3.58c3.82,0,6.71.7,6.71,4.78,0,4.7-4.12,4.9-6.71,4.93h-.81v7.64H98.84Zm2.77,8h.81c2.08,0,3.94-.27,3.94-3.26,0-2.65-1.5-3.12-3.94-3.12h-.81Z"/>
<path class="cls-1" d="M111.32,29.57h2.54v8.22h0c.4-.88,1.56-3.12,4.2-3.12,2.12,0,3,1.76,3,3.5v8.76h-2.54v-7.5c0-1.51-.22-2.87-1.51-2.87-2.51,0-3.22,3.92-3.22,5.41v5h-2.54Z"/>
<path class="cls-1" d="M127.67,47.05,123.07,35h2.64l3.14,8.55h.05L131.72,35h2.39L128,52.3h-2Z"/>
<path class="cls-1" d="M142.08,37.31a5.44,5.44,0,0,0-3-1.18c-.8,0-1.71.35-1.71,1.26,0,2.16,5.48,2.36,5.48,6.19,0,2.56-2,3.62-4.55,3.62a9.37,9.37,0,0,1-3.19-.53V44.33a5.91,5.91,0,0,0,3.32,1.26c1.46,0,2.06-.75,2.06-1.51,0-2.11-5.41-2.54-5.41-6,0-1.81,1.21-3.45,4.2-3.45a10,10,0,0,1,2.82.48Z"/>
<path class="cls-1" d="m145.3 29.57h2.7v2.51h-2.7zm0.1 5.38h2.54v12h-2.54z"/>
<path class="cls-1" d="M151,40.94c0-4,1.76-6.27,5.28-6.27s5.31,2.22,5.31,6.27-1.79,6.26-5.31,6.26S151,45,151,40.94Zm5.28,5.2c2.26,0,2.54-3,2.54-5.2s-.28-5.21-2.54-5.21-2.52,3-2.52,5.21.28,5.2,2.52,5.2Z"/>
<path class="cls-1" d="M170.9,37.31a5.44,5.44,0,0,0-3-1.18c-.8,0-1.71.35-1.71,1.26,0,2.16,5.49,2.36,5.49,6.19,0,2.56-2,3.62-4.56,3.62a9.41,9.41,0,0,1-3.19-.53V44.33a5.91,5.91,0,0,0,3.32,1.26c1.46,0,2.06-.75,2.06-1.51,0-2.11-5.41-2.54-5.41-6,0-1.81,1.21-3.45,4.2-3.45a10,10,0,0,1,2.82.48Z"/>
<path class="cls-1" d="M182.92,46.59a9.16,9.16,0,0,1-3.19.6c-3.8,0-6-2.29-6-6.74,0-3.57,1.63-5.78,5.08-5.78,3.22,0,4.3,1.71,4.3,4.17h-2.67c0-1.43-.15-3.12-1.73-3.12s-2.21,1.71-2.21,3.88c0,2.92,1.23,6.26,4.3,6.26a5.76,5.76,0,0,0,2.13-.45Z"/>
<path class="cls-1" d="M185.31,29.57h2.54v8.22h.05c.4-.88,1.56-3.12,4.2-3.12,2.11,0,3,1.76,3,3.5v8.76h-2.54v-7.5c0-1.51-.23-2.87-1.51-2.87-2.51,0-3.22,3.92-3.22,5.41v5h-2.54Z"/>
<path class="cls-1" d="M206.09,44.08H206c-.4.88-1.53,3.12-4.17,3.12-2.11,0-3-1.76-3-3.5V35h2.54v7.5c0,1.5.23,2.86,1.51,2.86,2.52,0,3.22-3.92,3.22-5.4V35h2.54v12h-2.56Z"/>
<path class="cls-1" d="m212.5 29.57h2.5v17.35h-2.5z"/>
<path class="cls-1" d="M227.52,46.52a8.6,8.6,0,0,1-3.5.68c-3.32,0-6-2-6-6.79,0-3.32,1.33-5.74,5.11-5.74s4.6,2.59,4.6,4.9h-7.17c0,2.37,1.06,6.29,4.65,6.29a5.34,5.34,0,0,0,2.29-.5Zm-2.27-8.1c0-.93-.32-2.69-2.21-2.69s-2.34,2-2.39,2.69Z"/>
<path class="cls-1" d="m98.08 55.39h2.6l2.54 13.61 4.25-13.63h2.13l4.28 13.63h0.05l2.57-13.63h2.13l-3.27 17.36h-2.76l-4.18-13.49-4.2 13.49h-2.79z"/>
<path class="cls-1" d="M126.61,71.08h0A3.85,3.85,0,0,1,123.18,73a3.08,3.08,0,0,1-3.26-2.9.28.28,0,0,0,0-.09c0-3.7,5.11-3.87,6.7-4V65c0-1.3,0-3.47-1.69-3.47s-1.84,1.21-1.94,2.62h-2.66c.12-1.79.83-3.67,4.6-3.67s4.22,2.18,4.22,4.52v7.72H126.6Zm0-3.94c-1.06.07-3.93.3-3.93,2.51,0,1.08.63,1.79,1.46,1.79a2.74,2.74,0,0,0,2.47-2.9Z"/>
<path class="cls-1" d="m132.94 55.39h2.54v17.36h-2.54z"/>
<path class="cls-1" d="M146.17,70.78h0A3.35,3.35,0,0,1,143,73c-3.45,0-4.5-2.81-4.5-6.26,0-3.6,1.33-6.26,4.5-6.26a3.26,3.26,0,0,1,3.12,1.93h.05v-7h2.54V72.74h-2.54Zm-2.49.63c2.09,0,2.39-2.66,2.39-4.65s-.2-4.8-2.39-4.8c-2,0-2.41,2.72-2.41,4.8s.37,4.65,2.41,4.65Z"/>
<path class="cls-1" d="M161,72.34a8.25,8.25,0,0,1-3.5.68c-3.32,0-6-2-6-6.79,0-3.32,1.34-5.73,5.11-5.73s4.6,2.59,4.6,4.9h-7.17c0,2.36,1.06,6.28,4.66,6.28a5.13,5.13,0,0,0,2.28-.5Zm-2.26-8.1c0-.93-.33-2.69-2.22-2.69s-2.33,2-2.39,2.69Z"/>
<path class="cls-1" d="M164.05,60.77h2.54v2.84h0c.4-.88,1.56-3.12,4.2-3.12,2.11,0,3,1.76,3,3.5v8.76h-2.54v-7.5c0-1.51-.23-2.87-1.51-2.87-2.51,0-3.22,3.92-3.22,5.41v4.95h-2.54Z"/>
<path class="cls-1" d="M179.87,62.43h0a3.74,3.74,0,0,1,3.35-1.93c3.22,0,4.5,2.71,4.5,6.31,0,4.43-2.17,6.21-5.34,6.21-4.67,0-5.1-3.12-5.1-6.21V55.39h2.54ZM182.44,72c2.06,0,2.56-2.72,2.56-5.16,0-2.11-.47-4.86-2.56-4.86S180,64.55,180,66.81c0,3,.38,5.13,2.47,5.15Z"/>
<path class="cls-1" d="M197.88,69.9h0c-.4.88-1.54,3.12-4.18,3.12-2.11,0-3-1.76-3-3.5V60.77h2.54v7.5c0,1.51.22,2.87,1.51,2.87,2.51,0,3.21-3.93,3.21-5.41v-5h2.54v12h-2.56Z"/>
<path class="cls-1" d="M204.17,60.77h2.54v3h0c.8-1.61,1.68-3.14,3.87-3.32v2.64c-2.44.08-3.92.91-3.92,4.13v5.48h-2.54Z"/>
<path class="cls-1" d="M221.9,72.39c0,3.37-1.11,6-5.91,6a13,13,0,0,1-3.45-.47V75.44a7.8,7.8,0,0,0,3.85,1.46c2.67,0,3-1.87,3-4.5V71.09h-.05a3.24,3.24,0,0,1-3.12,1.66c-3.17,0-4.5-2.59-4.5-6.11s1.06-6.14,4.5-6.14a3.29,3.29,0,0,1,3.12,2.24h.05v-2h2.54Zm-5-1.1c2.21,0,2.41-2.54,2.41-4.53s-.3-4.65-2.41-4.65-2.41,2.59-2.41,4.52.4,4.66,2.41,4.66Z"/>
<path class="cls-2" d="M49.1,38.33l2.21,1.15c0-.17,2.43.23,5.29,1.17-2.48-1.54-5.81-5.44-6.52-6.28-.26,1.33-.59,2.64-1,3.94Z"/>
<path class="cls-2" d="M31.7,60c-1.37.85-13.33,7.88-22.3,2.56-2.48-1.47-6.4-8.16.35-12C7.5,50.39,2.31,50.58.8,54c-2.27,5.13.09,12.37,9.66,14.08,12.54,1.76,21.7-6,22.84-7.06-.6-.39-1.1-.71-1.48-.94L31.7,60"/>
<path class="cls-3" d="M70,52.59a23.45,23.45,0,0,0-8.38-9.73,25.75,25.75,0,0,0-5-2.2c-2.87-.95-5.32-1.35-5.3-1.18s0,0,.11.08c1.09.66,14.07,7.35,14.66,16.95.1,3.39-2.16,10.43-11.09,10.66C46.37,67.3,34.74,60,34.74,60a56.69,56.69,0,0,0,9.47-10.75,45.28,45.28,0,0,0,4.9-10.9,40.44,40.44,0,0,0,1-3.94,33.41,33.41,0,0,0,.63-6.06c0-2.53.55-13.2-2.87-19.53-1.52-2.91-3.35-6.65-7.13-8.2A8.25,8.25,0,0,0,37,0a42.17,42.17,0,0,0-8.55,1.69A4.61,4.61,0,0,0,24.9,6.18h0V6.06c0-1.62,2.23-3.63,5-2.68A7.31,7.31,0,0,1,33.24,6C38.89,12.4,41.65,21.68,42,23a31.34,31.34,0,0,1,1.07,5.59h0a26.9,26.9,0,0,1,.19,5.88c0,.13,0,.25,0,.37v.11h0a47.58,47.58,0,0,1-.8,7.25C40.89,48.81,37.89,55.55,33.2,59c0,0-8.73-5.7-9.8-6.5-8.59-5.41-13.26-4.69-13.26-4.69S3,48,.72,54.2c0-.06.06-.11.08-.17,1.5-3.45,6.7-3.63,9-3.43l.23,0c8.45.82,18.83,7.63,21.72,9.42l.12.07c.38.23.88.56,1.48,1,3.77,2.46,11.54,7.64,16.77,9.28,6.07,1.89,12.37,1.25,16.13-2.25C72,62.3,71.42,55.74,70,52.59"/>
<path class="cls-2" d="m43.25 34.78v0.12-0.12"/>
<path class="cls-2" d="m43.07 28.53c-0.7-1-7.91-7.79-9.82-22.55a7.29 7.29 0 0 0-3.33-2.6c-2.79-0.95-5 1.06-5 2.68v0.11c-0.73 13.77 17.82 28.31 18.33 28.73v-0.12-0.36a25.7 25.7 0 0 0-0.19-5.88"/>
</g>
</g>
</svg>